<svg width="161" height="57" viewBox="0 0 161 57" fill="none" xmlns="http://www.w3.org/2000/svg"><link xmlns="" type="text/css" id="dark-mode" rel="stylesheet" href=""/><style xmlns="" type="text/css" id="dark-mode-custom-style"/>
<g clip-path="url(#clip0_114_14594)">
<path d="M14.8349 6.40691C15.8162 2.9725 18.9552 0.604675 22.5271 0.604675L138.458 0.604675C142.03 0.604675 145.169 2.97249 146.15 6.40691L160.493 56.6047H0.492676L14.8349 6.40691Z" fill="#171717"/>
<mask id="path-2-inside-1_114_14594" fill="white">
<path d="M14.8349 6.4069C15.8162 2.97249 18.9553 0.604675 22.5271 0.604675L138.458 0.604675C142.03 0.604675 145.169 2.97249 146.15 6.40691L161.493 60.1047L-0.507327 60.1047L14.8349 6.4069Z"/>
</mask>
<path d="M161.493 60.1047V61.1047H162.818L162.454 59.83L161.493 60.1047ZM-0.507327 60.1047L-1.46885 59.83L-1.83306 61.1047H-0.507327L-0.507327 60.1047ZM146.15 6.40691L147.112 6.13219L146.15 6.40691ZM14.8349 6.4069L13.8734 6.13218L14.8349 6.4069ZM22.5271 1.60468L138.458 1.60468V-0.395325L22.5271 -0.395325V1.60468ZM145.189 6.68163L160.531 60.3794L162.454 59.83L147.112 6.13219L145.189 6.68163ZM161.493 59.1047L-0.507327 59.1047L-0.507327 61.1047L161.493 61.1047V59.1047ZM0.454197 60.3794L15.7965 6.68162L13.8734 6.13218L-1.46885 59.83L0.454197 60.3794ZM138.458 1.60468C141.584 1.60468 144.33 3.67652 145.189 6.68163L147.112 6.13219C146.008 2.26847 142.477 -0.395325 138.458 -0.395325V1.60468ZM22.5271 -0.395325C18.5088 -0.395325 14.9773 2.26846 13.8734 6.13218L15.7965 6.68162C16.6551 3.67651 19.4018 1.60468 22.5271 1.60468V-0.395325Z" fill="white" mask="url(#path-2-inside-1_114_14594)"/>
</g>
<defs>
<clipPath id="clip0_114_14594">
<rect width="160" height="56" fill="white" transform="translate(0.492676 0.604675)"/>
</clipPath>
</defs>
</svg>